<?xml version="1.0" standalone="no"?>
<!DOCTYPE svg PUBLIC "-//W3C//DTD SVG 20010904//EN"
 "http://www.w3.org/TR/2001/REC-SVG-20010904/DTD/svg10.dtd">
<svg version="1.0" xmlns="http://www.w3.org/2000/svg"
 width="564.000000pt" height="564.000000pt" viewBox="0 0 564.000000 564.000000"
 preserveAspectRatio="xMidYMid meet">
<metadata>
Created by potrace 1.14, written by Peter Selinger 2001-2017
</metadata>
<g transform="translate(0.000000,564.000000) scale(0.100000,-0.100000)"
fill="#000000" stroke="none">
<path d="M2737 4504 c-1 -1 -42 -5 -90 -8 -49 -3 -92 -8 -95 -10 -4 -2 -25 -7
-47 -10 -177 -28 -430 -125 -583 -222 -29 -19 -55 -34 -58 -34 -2 0 -10 -5
-17 -10 -7 -6 -43 -34 -82 -62 -59 -44 -112 -90 -179 -154 -54 -51 -157 -176
-211 -254 -70 -100 -179 -314 -213 -415 -93 -275 -123 -602 -79 -845 3 -14 8
-45 12 -70 60 -375 313 -797 625 -1043 36 -28 67 -54 70 -57 10 -13 190 -120
256 -153 106 -53 289 -120 360 -133 16 -3 37 -7 46 -10 25 -7 58 -13 108 -19
25 -3 61 -8 80 -11 60 -10 282 -12 345 -4 33 5 80 11 105 14 216 29 478 124
658 239 40 26 74 47 77 47 3 0 13 7 22 14 10 8 45 36 78 62 147 117 346 343
416 474 13 25 27 47 30 50 3 3 26 48 51 100 78 163 134 353 163 559 13 94 7
382 -10 471 -3 14 -7 36 -10 50 -50 272 -173 544 -348 770 -66 85 -214 232
-302 301 -83 64 -132 99 -139 99 -3 0 -24 13 -48 29 -131 89 -392 184 -618
226 -65 12 -364 28 -373 19z m409 -118 c356 -73 647 -232 897 -491 111 -114
242 -305 299 -435 16 -36 33 -74 38 -85 25 -52 84 -243 94 -305 35 -210 40
-451 12 -596 -3 -12 -7 -39 -11 -60 -3 -22 -15 -70 -26 -109 -96 -337 -264
-603 -531 -841 -40 -36 -170 -129 -235 -168 -186 -111 -444 -199 -663 -224
-75 -8 -322 -8 -392 0 -358 45 -709 213 -962 462 -50 50 -109 114 -131 141
-21 28 -44 55 -50 60 -32 30 -145 224 -189 325 -34 79 -83 216 -89 250 -3 14
-12 56 -21 95 -22 93 -30 182 -30 345 0 167 8 239 40 372 42 175 127 381 205
495 16 24 29 46 29 49 0 5 48 73 60 84 3 3 23 28 44 55 51 65 193 204 265 259
201 155 431 261 681 316 206 45 466 47 666 6z"/>
<path d="M2689 4316 c-2 -2 -31 -6 -64 -9 -134 -12 -348 -77 -496 -151 -204
-103 -361 -228 -532 -425 -78 -90 -195 -295 -250 -441 -28 -73 -62 -195 -71
-255 -7 -42 -13 -79 -21 -130 -12 -73 -6 -296 11 -395 12 -68 15 -86 30 -150
9 -36 17 -72 19 -80 8 -37 81 -212 118 -280 97 -182 279 -398 434 -514 352
-264 757 -369 1198 -311 132 17 324 80 468 151 236 118 457 310 602 524 62 91
175 316 191 379 2 9 13 48 24 86 11 39 23 83 26 99 3 16 7 32 9 36 9 14 19
161 19 280 1 172 -9 259 -44 391 -17 63 -32 121 -34 129 -9 34 -105 239 -144
305 -137 234 -369 452 -620 583 -154 79 -331 140 -492 167 -40 7 -375 16 -381
11z m366 -91 c144 -21 342 -87 475 -158 41 -22 77 -43 80 -46 3 -4 12 -10 20
-13 30 -11 176 -127 245 -194 233 -228 374 -499 435 -836 14 -78 17 -140 15
-267 -1 -91 -6 -179 -9 -196 -29 -135 -41 -181 -67 -260 -172 -501 -594 -874
-1119 -986 -67 -15 -144 -22 -260 -24 -144 -4 -200 0 -320 19 -154 25 -390
119 -540 218 -36 23 -67 45 -70 48 -3 3 -23 19 -45 35 -59 44 -205 192 -256
260 -24 33 -46 62 -49 65 -6 6 -21 31 -65 107 -76 131 -157 351 -171 467 -3
22 -10 67 -15 99 -16 92 -11 378 7 408 1 3 6 28 9 55 4 27 13 68 21 91 7 23
16 52 18 65 14 67 105 268 158 345 15 23 28 46 28 51 0 6 3 12 8 14 4 2 27 30
51 63 51 68 196 216 256 260 22 17 42 32 45 35 3 3 28 20 55 38 28 17 55 36
61 41 9 8 172 87 229 111 26 11 146 49 171 54 10 3 40 9 65 15 26 6 78 14 115
17 38 4 71 8 73 11 7 5 296 -5 346 -12z"/>
<path d="M1678 3282 c-10 -2 -18 -8 -18 -13 0 -10 2 -10 69 -14 29 -1 49 -8
57 -20 20 -27 18 -1069 -2 -1086 -7 -6 -37 -13 -66 -16 -59 -6 -63 -8 -54 -21
3 -5 103 -9 231 -9 183 0 225 2 225 13 0 8 -11 14 -27 15 -38 1 -79 6 -103 14
-23 7 -22 4 -21 200 0 72 0 181 1 243 l0 113 38 -6 c196 -33 369 41 434 185
24 54 28 170 8 221 -34 86 -109 145 -217 170 -44 10 -512 20 -555 11z m504
-54 c43 -19 83 -75 96 -134 14 -64 6 -188 -16 -237 -11 -25 -36 -57 -56 -72
-43 -33 -129 -61 -187 -60 l-44 0 0 250 0 250 31 16 c37 18 117 12 176 -13z"/>
<path d="M2908 3277 c-30 -11 -21 -14 49 -21 35 -3 72 -11 83 -18 18 -12 44
-76 130 -323 15 -44 55 -156 88 -250 34 -93 82 -233 107 -310 90 -274 107
-307 126 -244 30 100 131 418 138 434 5 11 30 81 56 155 56 162 116 327 157
433 33 82 54 105 110 116 17 4 33 12 36 19 6 18 -324 16 -331 -2 -4 -10 11
-13 59 -13 35 0 70 -5 78 -12 16 -14 13 -50 -11 -114 -8 -23 -19 -55 -23 -72
-5 -16 -33 -102 -64 -190 -30 -88 -69 -200 -86 -250 -17 -49 -33 -97 -36 -105
-3 -8 -4 -15 -2 -16 2 0 -2 -7 -9 -15 -6 -8 -14 -28 -17 -43 -9 -52 -24 -52
-40 0 -8 27 -58 175 -111 329 -144 421 -147 428 -150 447 -6 28 19 35 130 37
43 1 74 15 62 27 -10 10 -502 11 -529 1z"/>
<path d="M2643 2258 c-45 -22 -54 -106 -15 -141 69 -61 165 -4 148 88 -11 57
-73 82 -133 53z"/>
</g>
</svg>
